<svg width="24" height="24" fill="none" xmlns="http://www.w3.org/2000/svg"><path d="M16.692 10.273a5 5 0 00-2.829-2.913m6.831 2.31a9 9 0 00-6.364-6.363" stroke="#6D1E28" stroke-width="2" stroke-linecap="round"/><path clip-rule="evenodd" d="M9.545 8.643c.404 1.458-.05 2.978-1.044 3.916-.189.178-.25.465-.102.678a9.493 9.493 0 002.358 2.36c.214.149.502.087.68-.103.935-1.002 2.46-1.461 3.922-1.056 1.97.546 3.08 2.455 2.477 4.264-1.765 5.3-8.56.047-10.572-1.967C5.203 14.673.03 7.917 5.284 6.165 7.093 5.56 9 6.67 9.546 8.642z" stroke="#6D1E28" stroke-width="2"/></svg>