<svg width="23" height="24" fill="none" xmlns="http://www.w3.org/2000/svg"><g clip-path="url(#clip0_151_1324)"><path d="M11.5.956C5.399.956.456 5.9.456 12c0 6.1 4.943 11.044 11.044 11.044 6.1 0 11.044-4.944 11.044-11.044C22.544 5.9 17.6.956 11.5.956zm5.424 7.566l-1.813 8.542c-.134.605-.494.752-.997.467l-2.761-2.035-1.332 1.283c-.146.146-.271.271-.556.271l.196-2.81 5.116-4.623c.223-.196-.049-.307-.343-.11l-6.324 3.98-2.725-.85c-.592-.188-.606-.593.125-.878l10.647-4.106c.495-.178.927.12.766.869h.001z" fill="#fff"/></g><defs><clipPath id="clip0_151_1324"><path fill="#fff" transform="translate(.1 .6)" d="M0 0h22.8v22.8H0z"/></clipPath></defs></svg>