<svg width="23" height="23" fill="none" xmlns="http://www.w3.org/2000/svg"><path d="M16.621 13.664c-.285-.145-1.677-.824-1.937-.92-.26-.094-.449-.142-.638.144-.186.278-.731.916-.898 1.102-.167.186-.33.2-.612.074-.286-.145-1.199-.442-2.282-1.414-.847-.753-1.41-1.68-1.578-1.966-.167-.282-.018-.442.123-.583.13-.13.285-.326.43-.497.138-.171.182-.286.282-.471.093-.2.045-.356-.025-.497-.071-.142-.639-1.54-.876-2.097-.227-.553-.464-.483-.639-.483-.163-.015-.352-.015-.541-.015-.189 0-.497.07-.757.342-.26.285-.995.968-.995 2.349 0 1.384 1.017 2.724 1.158 2.924.144.185 2 3.035 4.846 4.26.68.285 1.206.456 1.618.598.68.215 1.3.185 1.789.114.541-.089 1.677-.687 1.915-1.354.241-.672.241-1.228.17-1.355-.07-.13-.255-.2-.54-.326l-.013.07zm-5.162 6.999h-.015a9.521 9.521 0 01-4.806-1.31l-.34-.205-3.563.928.957-3.466-.23-.357a9.38 9.38 0 01-1.44-4.994c0-5.173 4.234-9.392 9.444-9.392 2.524 0 4.892.983 6.673 2.764a9.303 9.303 0 012.764 6.643c-.007 5.17-4.238 9.389-9.44 9.389h-.004zm8.034-17.386C17.326 1.183 14.476 0 11.444 0 5.191 0 .1 5.07.096 11.3c0 1.989.52 3.93 1.514 5.648L0 22.8l6.02-1.57a11.494 11.494 0 005.425 1.377h.003c6.257 0 11.348-5.07 11.352-11.304 0-3.017-1.176-5.856-3.321-7.99l.014-.036z" fill="#6D1E28"/></svg>