<svg width="54" height="54" viewBox="0 0 54 54" fill="none" xmlns="http://www.w3.org/2000/svg">
<path d="M15.2099 49.5H38.7899C44.9999 49.5 47.4749 45.6975 47.7674 41.0625L48.9374 22.4775C49.0103 21.3251 48.8461 20.17 48.4549 19.0836C48.0638 17.9972 47.454 17.0026 46.6632 16.1612C45.8724 15.3198 44.9174 14.6495 43.8573 14.1918C42.7973 13.7341 41.6546 13.4986 40.4999 13.5C39.1274 13.5 37.8674 12.7125 37.2374 11.4975L35.6174 8.235C34.5824 6.1875 31.8824 4.5 29.5874 4.5H24.4349C22.1174 4.5 19.4174 6.1875 18.3824 8.235L16.7624 11.4975C16.1324 12.7125 14.8724 13.5 13.4999 13.5C8.61739 13.5 4.74739 17.6175 5.06239 22.4775L6.23239 41.0625C6.50239 45.6975 8.99989 49.5 15.2099 49.5ZM23.6249 18H30.3749H23.6249Z" fill="#D9D9D9"/>
<path d="M23.6249 18H30.3749M15.2099 49.5H38.7899C44.9999 49.5 47.4749 45.6975 47.7674 41.0625L48.9374 22.4775C49.0103 21.3251 48.8461 20.17 48.4549 19.0836C48.0638 17.9972 47.454 17.0026 46.6632 16.1612C45.8724 15.3198 44.9174 14.6495 43.8573 14.1918C42.7973 13.7341 41.6546 13.4986 40.4999 13.5C39.1274 13.5 37.8674 12.7125 37.2374 11.4975L35.6174 8.235C34.5824 6.1875 31.8824 4.5 29.5874 4.5H24.4349C22.1174 4.5 19.4174 6.1875 18.3824 8.235L16.7624 11.4975C16.1324 12.7125 14.8724 13.5 13.4999 13.5C8.61739 13.5 4.74739 17.6175 5.06239 22.4775L6.23239 41.0625C6.50239 45.6975 8.99989 49.5 15.2099 49.5Z" stroke="black" stroke-width="2" stroke-linecap="round" stroke-linejoin="round"/>
<path d="M27 40.5C31.0275 40.5 34.3125 37.215 34.3125 33.1875C34.3125 29.16 31.0275 25.875 27 25.875C22.9725 25.875 19.6875 29.16 19.6875 33.1875C19.6875 37.215 22.9725 40.5 27 40.5Z" fill="#7A7A7A" stroke="black" stroke-width="2" stroke-linecap="round" stroke-linejoin="round"/>
</svg>
