<svg width="54" height="54" viewBox="0 0 54 54" fill="none" xmlns="http://www.w3.org/2000/svg">
<path d="M34.8974 6.36755H19.1024C13.4999 6.36755 12.2624 9.15755 11.5424 12.5776L8.9999 24.7501H44.9999L42.4574 12.5776C41.7374 9.15755 40.4999 6.36755 34.8974 6.36755ZM49.4774 44.5951C49.7249 47.2276 47.6099 49.5001 44.9099 49.5001H40.6799C38.2499 49.5001 37.9124 48.4651 37.4849 47.1826L37.0349 45.8326C36.4049 43.9876 35.9999 42.7501 32.7599 42.7501H21.2399C17.9999 42.7501 17.5274 44.1451 16.9649 45.8326L16.5149 47.1826C16.0874 48.4651 15.7499 49.5001 13.3199 49.5001H9.0899C6.3899 49.5001 4.2749 47.2276 4.5224 44.5951L5.7824 30.8926C6.0974 27.5176 6.7499 24.7501 12.6449 24.7501H41.3549C47.2499 24.7501 47.9024 27.5176 48.2174 30.8926L49.4774 44.5951ZM8.9999 18.0001H6.7499H8.9999ZM47.2499 18.0001H44.9999H47.2499ZM26.9999 6.75005V11.2501V6.75005ZM23.6249 11.2501H30.3749H23.6249ZM13.4999 33.7501H20.2499H13.4999ZM33.7499 33.7501H40.4999H33.7499Z" fill="#D3FDFD"/>
<path d="M8.9999 18.0001H6.7499M47.2499 18.0001H44.9999M26.9999 6.75005V11.2501M23.6249 11.2501H30.3749M13.4999 33.7501H20.2499M33.7499 33.7501H40.4999M34.8974 6.36755H19.1024C13.4999 6.36755 12.2624 9.15755 11.5424 12.5776L8.9999 24.7501H44.9999L42.4574 12.5776C41.7374 9.15755 40.4999 6.36755 34.8974 6.36755ZM49.4774 44.5951C49.7249 47.2276 47.6099 49.5001 44.9099 49.5001H40.6799C38.2499 49.5001 37.9124 48.4651 37.4849 47.1826L37.0349 45.8326C36.4049 43.9876 35.9999 42.7501 32.7599 42.7501H21.2399C17.9999 42.7501 17.5274 44.1451 16.9649 45.8326L16.5149 47.1826C16.0874 48.4651 15.7499 49.5001 13.3199 49.5001H9.0899C6.3899 49.5001 4.2749 47.2276 4.5224 44.5951L5.7824 30.8926C6.0974 27.5176 6.7499 24.7501 12.6449 24.7501H41.3549C47.2499 24.7501 47.9024 27.5176 48.2174 30.8926L49.4774 44.5951Z" stroke="black" stroke-width="2" stroke-linecap="round" stroke-linejoin="round"/>
</svg>
