<svg width="36" height="36" viewBox="0 0 36 36" fill="none" xmlns="http://www.w3.org/2000/svg">
<path d="M3 3H5.61C7.23 3 8.505 4.395 8.37 6L7.125 20.94C7.07639 21.5188 7.14853 22.1014 7.33685 22.6508C7.52517 23.2003 7.82557 23.7046 8.21901 24.1319C8.61245 24.5592 9.09035 24.9001 9.62243 25.133C10.1545 25.3659 10.7292 25.4858 11.31 25.485H27.285C29.445 25.485 31.335 23.715 31.5 21.57L32.31 10.32C32.49 7.83 30.6 5.805 28.095 5.805H8.73M13.5 12H31.5M24.375 33C24.8723 33 25.3492 32.8025 25.7008 32.4508C26.0525 32.0992 26.25 31.6223 26.25 31.125C26.25 30.6277 26.0525 30.1508 25.7008 29.7992C25.3492 29.4475 24.8723 29.25 24.375 29.25C23.8777 29.25 23.4008 29.4475 23.0492 29.7992C22.6975 30.1508 22.5 30.6277 22.5 31.125C22.5 31.6223 22.6975 32.0992 23.0492 32.4508C23.4008 32.8025 23.8777 33 24.375 33ZM12.375 33C12.8723 33 13.3492 32.8025 13.7008 32.4508C14.0525 32.0992 14.25 31.6223 14.25 31.125C14.25 30.6277 14.0525 30.1508 13.7008 29.7992C13.3492 29.4475 12.8723 29.25 12.375 29.25C11.8777 29.25 11.4008 29.4475 11.0492 29.7992C10.6975 30.1508 10.5 30.6277 10.5 31.125C10.5 31.6223 10.6975 32.0992 11.0492 32.4508C11.4008 32.8025 11.8777 33 12.375 33Z" stroke="black" stroke-width="3" stroke-miterlimit="10" stroke-linecap="round" stroke-linejoin="round"/>
</svg>
