<svg width="36" height="36" viewBox="0 0 36 36" fill="none" xmlns="http://www.w3.org/2000/svg">
<path d="M21 12H28.5M22.5 18H28.5M25.5 24H28.5M25.5 31.5H10.5C4.5 31.5 3 30 3 24V12C3 6 4.5 4.5 10.5 4.5H25.5C31.5 4.5 33 6 33 12V24C33 30 31.5 31.5 25.5 31.5Z" stroke="black" stroke-width="3" stroke-linecap="round" stroke-linejoin="round"/>
<path d="M18 24.4949C17.899 23.442 17.4328 22.4575 16.6821 21.7123C15.9314 20.9671 14.9436 20.5081 13.89 20.4149C13.1319 20.3399 12.3681 20.3399 11.61 20.4149C10.5574 20.5109 9.57117 20.9709 8.82104 21.7155C8.07091 22.4602 7.60377 23.443 7.5 24.4949M12.75 16.9349C13.4701 16.9349 14.1606 16.6488 14.6698 16.1397C15.179 15.6305 15.465 14.9399 15.465 14.2199C15.465 13.4998 15.179 12.8092 14.6698 12.3001C14.1606 11.7909 13.4701 11.5049 12.75 11.5049C12.0299 11.5049 11.3394 11.7909 10.8302 12.3001C10.321 12.8092 10.035 13.4998 10.035 14.2199C10.035 14.9399 10.321 15.6305 10.8302 16.1397C11.3394 16.6488 12.0299 16.9349 12.75 16.9349Z" stroke="black" stroke-width="3" stroke-linecap="round" stroke-linejoin="round"/>
</svg>
