<svg width="24" height="24" viewBox="0 0 24 24" fill="none" xmlns="http://www.w3.org/2000/svg">
<path d="M4.00022 7.99996H3.00022M21.0002 7.99996H20.0002M12.0002 2.99996V4.99996M10.5002 4.99996H13.5002M6.00022 15H9.00022M15.0002 15H18.0002M15.5102 2.82996H8.49022C6.00022 2.82996 5.45022 4.06996 5.13022 5.58996L4.00022 11H20.0002L18.8702 5.58996C18.5502 4.06996 18.0002 2.82996 15.5102 2.82996ZM21.9902 19.82C22.1002 20.99 21.1602 22 19.9602 22H18.0802C17.0002 22 16.8502 21.54 16.6602 20.97L16.4602 20.37C16.1802 19.55 16.0002 19 14.5602 19H9.44022C8.00022 19 7.79022 19.62 7.54022 20.37L7.34022 20.97C7.15022 21.54 7.00022 22 5.92022 22H4.04022C2.84022 22 1.90022 20.99 2.01022 19.82L2.57022 13.73C2.71022 12.23 3.00022 11 5.62022 11H18.3802C21.0002 11 21.2902 12.23 21.4302 13.73L21.9902 19.82Z" stroke="black" stroke-width="2" stroke-linecap="round" stroke-linejoin="round"/>
</svg>
