<svg width="54" height="54" viewBox="0 0 54 54" fill="none" xmlns="http://www.w3.org/2000/svg">
<path d="M47.25 15.75V38.25C47.25 45 43.875 49.5 36 49.5H18C10.125 49.5 6.75 45 6.75 38.25V15.75C6.75 9 10.125 4.5 18 4.5H36C43.875 4.5 47.25 9 47.25 15.75Z" fill="#FFF8DD" stroke="black" stroke-width="2" stroke-miterlimit="10" stroke-linecap="round" stroke-linejoin="round"/>
<path d="M32.625 10.125V14.625C32.625 17.1 34.65 19.125 37.125 19.125H41.625" stroke="black" stroke-width="2" stroke-miterlimit="10" stroke-linecap="round" stroke-linejoin="round"/>
<path d="M16.8301 34.8525C16.0876 32.535 16.9651 29.6775 19.3726 28.89C20.6551 28.485 22.2301 28.8225 23.1076 30.06C23.9401 28.7775 25.5826 28.485 26.8426 28.89C29.2726 29.6775 30.1276 32.535 29.4076 34.8525C28.2601 38.52 24.2326 40.4325 23.1076 40.4325C22.0051 40.41 18.0226 38.5425 16.8301 34.8525Z" fill="#E91C1C" stroke="black" stroke-width="2" stroke-linecap="round" stroke-linejoin="round"/>
</svg>
