<svg width="35" height="35" viewBox="0 0 35 35" fill="none" xmlns="http://www.w3.org/2000/svg">
<path d="M24.9942 6.21189C24.208 5.94962 23.3811 5.8335 22.553 5.8335C20.4167 5.83348 18.9582 8.80883 17.5 9.91662C16.0674 8.82469 14.5833 5.8335 12.4731 5.8335C11.6618 5.8335 10.8152 5.92089 10.0463 6.18449C5.14939 7.77767 3.40378 13.0622 4.88689 17.6812C5.72688 20.0416 7.08006 22.1828 8.83879 23.943C11.4879 26.4834 14.3727 28.6997 17.5 30.6249C20.6214 28.7506 23.5589 26.4764 26.1767 23.9561C27.9473 22.1959 29.2991 20.0416 30.126 17.6812C31.5842 13.0622 29.8386 7.77767 24.9942 6.21189Z" fill="#6D1E28" stroke="black" stroke-width="2"/>
</svg>
