<svg width="24" height="24" viewBox="0 0 24 24" fill="none" xmlns="http://www.w3.org/2000/svg">
<path d="M17.1389 4.25962C16.5998 4.07978 16.0328 4.00014 15.4649 4.00014C14 4.00014 12.9999 6.04038 12 6.8C11.0176 6.05125 10 4.00014 8.55296 4.00014C7.99669 4.00014 7.41614 4.06007 6.88887 4.24083C3.53101 5.33329 2.33402 8.95695 3.35101 12.1243C3.92701 13.7429 4.8549 15.2111 6.06088 16.4181C7.87741 18.1601 9.85555 19.6798 12 21C14.1404 19.7147 16.1547 18.1553 17.9498 16.427C19.1638 15.2201 20.0908 13.7429 20.6578 12.1243C21.6577 8.95695 20.4607 5.33329 17.1389 4.25962Z" stroke="black" stroke-width="2"/>
</svg>
