<svg width="20" height="20" viewBox="0 0 20 20" fill="none" xmlns="http://www.w3.org/2000/svg">
<g clip-path="url(#clip0_2_19)">
<path d="M10.0005 0C7.28233 0 6.94358 0.013125 5.87983 0.058125C4.81171 0.110625 4.08921 0.27625 3.45171 0.52375C2.79421 0.78125 2.23421 1.12313 1.68108 1.67938C1.12421 2.2325 0.779209 2.7925 0.525459 3.45C0.277959 4.0875 0.112334 4.81 0.059834 5.87812C0.011709 6.9425 0.00170898 7.28063 0.00170898 9.99875C0.00170898 12.7169 0.014834 13.0556 0.059834 14.1194C0.112334 15.1844 0.277959 15.91 0.525459 16.5475C0.782959 17.205 1.12483 17.765 1.68108 18.3181C2.23421 18.875 2.79421 19.22 3.45171 19.4738C4.08921 19.7181 4.81483 19.8869 5.87983 19.9394C6.94421 19.9875 7.28233 19.9975 10.0005 19.9975C12.7186 19.9975 13.0573 19.9844 14.1211 19.9394C15.1861 19.8869 15.9117 19.7175 16.5492 19.4738C17.2067 19.2163 17.7667 18.8744 18.3198 18.3181C18.8767 17.765 19.2217 17.2081 19.4755 16.5475C19.7198 15.91 19.8886 15.1844 19.9411 14.1194C19.9892 13.055 19.9992 12.7169 19.9992 9.99875C19.9992 7.28063 19.9861 6.94187 19.9411 5.87812C19.8886 4.81312 19.7192 4.08375 19.4755 3.45C19.218 2.7925 18.8761 2.2325 18.3198 1.67938C17.7667 1.1225 17.2098 0.7775 16.5492 0.52375C15.9117 0.27625 15.1861 0.110625 14.1211 0.058125C13.0567 0.01 12.7186 0 10.0005 0V0ZM10.0005 1.8C12.6698 1.8 12.9886 1.81313 14.0436 1.85812C15.0167 1.90375 15.5467 2.06625 15.8986 2.20375C16.368 2.38563 16.6961 2.60063 17.0511 2.95187C17.3992 3.3 17.6142 3.63187 17.7961 4.10125C17.9336 4.45312 18.0961 4.98312 18.1417 5.95625C18.1867 7.01125 18.1998 7.33062 18.1998 9.99937C18.1998 12.6681 18.1867 12.9875 18.138 14.0425C18.0855 15.0156 17.923 15.5456 17.7861 15.8975C17.5967 16.3669 17.3855 16.695 17.0367 17.05C16.6848 17.3981 16.3498 17.6131 15.8842 17.795C15.5367 17.9325 14.9992 18.095 14.0223 18.1406C12.9617 18.1856 12.6492 18.1987 9.97296 18.1987C7.29671 18.1987 6.98483 18.1856 5.92296 18.1369C4.94983 18.0844 4.41296 17.9219 4.06108 17.785C3.58608 17.5956 3.26046 17.3844 2.91171 17.0356C2.55983 16.6838 2.33608 16.3487 2.16358 15.8831C2.02358 15.5356 1.86358 14.9981 1.81171 14.0212C1.77608 12.9731 1.75921 12.6481 1.75921 9.98438C1.75921 7.32188 1.77608 6.99625 1.81171 5.935C1.86358 4.95813 2.02358 4.42188 2.16358 4.07312C2.33608 3.5975 2.56046 3.2725 2.91171 2.92062C3.25983 2.5725 3.58608 2.3475 4.06108 2.17125C4.41296 2.03437 4.93671 1.87188 5.91358 1.82313C6.97421 1.785 7.28671 1.77125 9.95921 1.77125L10.0005 1.8ZM10.0005 4.86688C7.16233 4.86688 4.86733 7.165 4.86733 10C4.86733 12.8381 7.16546 15.1331 10.0005 15.1331C12.8386 15.1331 15.1336 12.835 15.1336 10C15.1336 7.16188 12.8355 4.86688 10.0005 4.86688ZM10.0005 13.3331C8.15796 13.3331 6.66733 11.8425 6.66733 10C6.66733 8.1575 8.15796 6.66687 10.0005 6.66687C11.843 6.66687 13.3336 8.1575 13.3336 10C13.3336 11.8425 11.843 13.3331 10.0005 13.3331ZM16.5405 4.66188C16.5405 5.32625 15.9998 5.8625 15.3386 5.8625C14.6742 5.8625 14.138 5.32562 14.138 4.66188C14.138 4.00125 14.678 3.46375 15.3386 3.46375C15.9992 3.46375 16.5405 4.00125 16.5405 4.66188Z" fill="#2E2E2E"/>
</g>
<defs>
<clipPath id="clip0_2_19">
<rect width="20" height="20" fill="white"/>
</clipPath>
</defs>
</svg>
