<svg width="23" height="23" viewBox="0 0 23 23" fill="none" xmlns="http://www.w3.org/2000/svg">
<path d="M11.0437 0C4.94261 0 0 4.94332 0 11.0437C0 17.1442 4.94332 22.0875 11.0437 22.0875C17.1449 22.0875 22.0875 17.1442 22.0875 11.0437C22.0875 4.94332 17.1442 0 11.0437 0ZM16.468 7.56604L14.6554 16.1075C14.5215 16.7131 14.1609 16.8599 13.6579 16.5749L10.897 14.54L9.56531 15.8225C9.41854 15.9693 9.29385 16.0939 9.00885 16.0939L9.20479 13.2838L14.3212 8.66115C14.5443 8.46521 14.2721 8.35406 13.9778 8.55L7.65439 12.5307L4.92907 11.68C4.33699 11.4933 4.32345 11.0879 5.05376 10.8029L15.7014 6.69679C16.1958 6.51866 16.6276 6.8172 16.4673 7.56532L16.468 7.56604Z" fill="#6D1E28"/>
</svg>
