<svg width="23" height="24" viewBox="0 0 23 24" fill="none" xmlns="http://www.w3.org/2000/svg">
<g clip-path="url(#clip0_151_1324)">
<path d="M11.4998 0.956177C5.39867 0.956177 0.456055 5.8995 0.456055 11.9999C0.456055 18.1003 5.39938 23.0437 11.4998 23.0437C17.6009 23.0437 22.5436 18.1003 22.5436 11.9999C22.5436 5.8995 17.6002 0.956177 11.4998 0.956177ZM16.9241 8.52221L15.1115 17.0637C14.9775 17.6693 14.617 17.8161 14.114 17.5311L11.353 15.4962L10.0214 16.7787C9.87459 16.9254 9.7499 17.0501 9.4649 17.0501L9.66084 14.24L14.7773 9.61733C15.0003 9.42139 14.7281 9.31024 14.4339 9.50618L8.11044 13.4869L5.38513 12.6362C4.79304 12.4495 4.7795 12.0441 5.50982 11.7591L16.1574 7.65296C16.6519 7.47484 17.0837 7.77338 16.9234 8.5215L16.9241 8.52221Z" fill="white"/>
</g>
<defs>
<clipPath id="clip0_151_1324">
<rect width="22.8" height="22.8" fill="white" transform="translate(0.0996094 0.599976)"/>
</clipPath>
</defs>
</svg>
