<svg width="23" height="23" viewBox="0 0 23 23" fill="none" xmlns="http://www.w3.org/2000/svg">
<path d="M16.6212 13.6636C16.3355 13.519 14.944 12.84 14.6839 12.7431C14.4238 12.6504 14.235 12.602 14.0455 12.8877C13.8603 13.1663 13.3145 13.804 13.1478 13.9899C12.981 14.1759 12.8172 14.1901 12.5357 14.064C12.25 13.9194 11.3373 13.6223 10.2536 12.6504C9.40714 11.8973 8.84355 10.9696 8.67611 10.6839C8.50939 10.4018 8.65759 10.2422 8.79866 10.1011C8.92834 9.97144 9.08437 9.77479 9.22901 9.60379C9.36652 9.43279 9.4107 9.31807 9.51116 9.13282C9.60379 8.93261 9.55605 8.77657 9.48551 8.6355C9.41497 8.49442 8.84711 7.09579 8.60985 6.53861C8.38327 5.98571 8.14601 6.05625 7.97145 6.05625C7.80829 6.04129 7.61876 6.04129 7.42995 6.04129C7.24114 6.04129 6.93262 6.11182 6.67256 6.38257C6.4125 6.66829 5.67791 7.35086 5.67791 8.73169C5.67791 10.1161 6.69465 11.4556 6.83572 11.6558C6.98036 11.841 8.83571 14.691 11.6821 15.9158C12.3612 16.2015 12.8884 16.3725 13.3002 16.5136C13.9792 16.7288 14.5991 16.6989 15.0886 16.6283C15.6301 16.5393 16.7658 15.9415 17.0038 15.2739C17.2453 14.602 17.2453 14.0455 17.1748 13.9194C17.1043 13.7897 16.919 13.7192 16.6333 13.5931L16.6212 13.6636ZM11.4591 20.6625H11.4442C9.75911 20.6625 8.09329 20.2058 6.63836 19.3522L6.29708 19.1484L2.73457 20.0761L3.69217 16.6098L3.46204 16.2535C2.52296 14.758 2.02207 13.0323 2.02207 11.2589C2.02207 6.08617 6.25646 1.86675 11.4663 1.86675C13.9899 1.86675 16.3576 2.85 18.1388 4.63125C19.9201 6.39754 20.9033 8.76517 20.9033 11.2739C20.8962 16.4431 16.6654 20.6625 11.4627 20.6625H11.4591ZM19.4933 3.27679C17.3259 1.18346 14.4759 0 11.4442 0C5.19128 0 0.09975 5.06944 0.0961875 11.2995C0.0961875 13.2888 0.6156 15.2297 1.61025 16.9475L0 22.8L6.0192 21.2304C7.6779 22.1245 9.54465 22.6033 11.4449 22.6069H11.4485C17.7049 22.6069 22.7964 17.5375 22.8 11.3031C22.8 8.28637 21.6237 5.44706 19.479 3.31312L19.4933 3.27679Z" fill="#6D1E28"/>
</svg>
