<svg width="24" height="24" viewBox="0 0 24 24" fill="none" xmlns="http://www.w3.org/2000/svg">
<g clip-path="url(#clip0_151_1319)">
<path d="M17.0714 14.2636C16.7857 14.1189 15.3942 13.4399 15.1341 13.343C14.874 13.2504 14.6852 13.202 14.4957 13.4877C14.3105 13.7663 13.7647 14.404 13.598 14.5899C13.4312 14.7759 13.2674 14.7901 12.9859 14.664C12.7002 14.5194 11.7875 14.2223 10.7038 13.2504C9.85733 12.4973 9.29375 11.5696 9.12631 11.2839C8.95958 11.0018 9.10778 10.8422 9.24886 10.7011C9.37853 10.5714 9.53457 10.3748 9.67921 10.2038C9.81672 10.0328 9.8609 9.91805 9.96136 9.7328C10.054 9.53259 10.0062 9.37655 9.93571 9.23548C9.86517 9.0944 9.29731 7.69576 9.06004 7.13859C8.83347 6.58569 8.59621 6.65623 8.42164 6.65623C8.25848 6.64126 8.06896 6.64126 7.88015 6.64126C7.69133 6.64126 7.38282 6.7118 7.12276 6.98255C6.86269 7.26826 6.12811 7.95084 6.12811 9.33166C6.12811 10.7161 7.14485 12.0555 7.28592 12.2558C7.43056 12.441 9.28591 15.291 12.1323 16.5158C12.8114 16.8015 13.3386 16.9725 13.7504 17.1136C14.4294 17.3288 15.0493 17.2988 15.5388 17.2283C16.0803 17.1392 17.216 16.5415 17.454 15.8738C17.6955 15.202 17.6955 14.6455 17.625 14.5194C17.5545 14.3897 17.3692 14.3192 17.0835 14.193L17.0714 14.2636ZM11.9093 21.2625H11.8944C10.2093 21.2625 8.54348 20.8058 7.08856 19.9522L6.74727 19.7484L3.18477 20.6761L4.14237 17.2098L3.91223 16.8535C2.97316 15.358 2.47227 13.6323 2.47227 11.8589C2.47227 6.68615 6.70666 2.46673 11.9165 2.46673C14.4401 2.46673 16.8078 3.44998 18.589 5.23123C20.3703 6.99751 21.3535 9.36515 21.3535 11.8739C21.3464 17.0431 17.1156 21.2625 11.9129 21.2625H11.9093ZM19.9435 3.87676C17.7761 1.78344 14.9261 0.599976 11.8944 0.599976C5.64147 0.599976 0.549945 5.66941 0.546383 11.8995C0.546383 13.8888 1.0658 15.8297 2.06045 17.5475L0.450195 23.4L6.4694 21.8303C8.1281 22.7245 9.99484 23.2033 11.8951 23.2069H11.8986C18.1551 23.2069 23.2466 18.1375 23.2502 11.9031C23.2502 8.88635 22.0739 6.04704 19.9292 3.9131L19.9435 3.87676Z" fill="white"/>
</g>
<defs>
<clipPath id="clip0_151_1319">
<rect width="22.8" height="22.8" fill="white" transform="translate(0.450195 0.599976)"/>
</clipPath>
</defs>
</svg>
