<svg width="54" height="54" fill="none" xmlns="http://www.w3.org/2000/svg"><path d="M15.21 49.5h23.58c6.21 0 8.685-3.803 8.977-8.438l1.17-18.584A8.444 8.444 0 0040.5 13.5a3.697 3.697 0 01-3.263-2.002l-1.62-3.263C34.582 6.188 31.882 4.5 29.587 4.5h-5.152c-2.318 0-5.018 1.688-6.053 3.735l-1.62 3.263A3.697 3.697 0 0113.5 13.5c-4.883 0-8.753 4.117-8.438 8.977l1.17 18.585C6.502 45.699 9 49.5 15.21 49.5zM23.625 18h6.75-6.75z" fill="#D9D9D9"/><path d="M23.625 18h6.75M15.21 49.5h23.58c6.21 0 8.685-3.803 8.977-8.438l1.17-18.584A8.444 8.444 0 0040.5 13.5a3.697 3.697 0 01-3.263-2.002l-1.62-3.263C34.582 6.188 31.882 4.5 29.587 4.5h-5.152c-2.318 0-5.018 1.688-6.053 3.735l-1.62 3.263A3.697 3.697 0 0113.5 13.5c-4.883 0-8.753 4.117-8.438 8.977l1.17 18.585C6.502 45.699 9 49.5 15.21 49.5z" stroke="#000" stroke-width="2" stroke-linecap="round" stroke-linejoin="round"/><path d="M27 40.5c4.027 0 7.313-3.285 7.313-7.313 0-4.027-3.286-7.312-7.313-7.312-4.027 0-7.313 3.285-7.313 7.313 0 4.027 3.285 7.312 7.313 7.312z" fill="#7A7A7A" stroke="#000" stroke-width="2" stroke-linecap="round" stroke-linejoin="round"/></svg>