<svg width="54" height="54" fill="none" xmlns="http://www.w3.org/2000/svg"><path d="M34.897 6.368H19.102c-5.602 0-6.84 2.79-7.56 6.21L9 24.75h36l-2.543-12.172c-.72-3.42-1.957-6.21-7.56-6.21zm14.58 38.227c.248 2.633-1.867 4.905-4.567 4.905h-4.23c-2.43 0-2.768-1.035-3.195-2.317l-.45-1.35c-.63-1.845-1.035-3.083-4.275-3.083H21.24c-3.24 0-3.713 1.395-4.275 3.083l-.45 1.35c-.428 1.282-.765 2.317-3.195 2.317H9.09c-2.7 0-4.815-2.272-4.568-4.905l1.26-13.702c.315-3.375.968-6.143 6.863-6.143h28.71c5.895 0 6.547 2.768 6.862 6.143l1.26 13.702zM9 18H6.75 9zm38.25 0H45h2.25zM27 6.75v4.5-4.5zm-3.375 4.5h6.75-6.75zM13.5 33.75h6.75-6.75zm20.25 0h6.75-6.75z" fill="#D3FDFD"/><path d="M9 18H6.75m40.5 0H45M27 6.75v4.5m-3.375 0h6.75M13.5 33.75h6.75m13.5 0h6.75M34.897 6.368H19.102c-5.602 0-6.84 2.79-7.56 6.21L9 24.75h36l-2.543-12.172c-.72-3.42-1.957-6.21-7.56-6.21zm14.58 38.227c.248 2.633-1.867 4.905-4.567 4.905h-4.23c-2.43 0-2.768-1.035-3.195-2.317l-.45-1.35c-.63-1.845-1.035-3.083-4.275-3.083H21.24c-3.24 0-3.713 1.395-4.275 3.083l-.45 1.35c-.428 1.282-.765 2.317-3.195 2.317H9.09c-2.7 0-4.815-2.272-4.568-4.905l1.26-13.702c.315-3.375.968-6.143 6.863-6.143h28.71c5.895 0 6.547 2.768 6.862 6.143l1.26 13.702z" stroke="#000" stroke-width="2" stroke-linecap="round" stroke-linejoin="round"/></svg>