<svg width="36" height="36" fill="none" xmlns="http://www.w3.org/2000/svg"><path d="M21 12h7.5m-6 6h6m-3 6h3m-3 7.5h-15C4.5 31.5 3 30 3 24V12c0-6 1.5-7.5 7.5-7.5h15c6 0 7.5 1.5 7.5 7.5v12c0 6-1.5 7.5-7.5 7.5z" stroke="#000" stroke-width="3" stroke-linecap="round" stroke-linejoin="round"/><path d="M18 24.495a4.53 4.53 0 00-4.11-4.08 11.58 11.58 0 00-2.28 0 4.545 4.545 0 00-4.11 4.08m5.25-7.56a2.715 2.715 0 100-5.43 2.715 2.715 0 000 5.43z" stroke="#000" stroke-width="3" stroke-linecap="round" stroke-linejoin="round"/></svg>