<svg width="54" height="54" fill="none" xmlns="http://www.w3.org/2000/svg"><path d="M47.25 15.75v22.5C47.25 45 43.875 49.5 36 49.5H18c-7.875 0-11.25-4.5-11.25-11.25v-22.5C6.75 9 10.125 4.5 18 4.5h18c7.875 0 11.25 4.5 11.25 11.25z" fill="#FFF8DD" stroke="#000" stroke-width="2" stroke-miterlimit="10" stroke-linecap="round" stroke-linejoin="round"/><path d="M32.625 10.125v4.5c0 2.475 2.025 4.5 4.5 4.5h4.5" stroke="#000" stroke-width="2" stroke-miterlimit="10" stroke-linecap="round" stroke-linejoin="round"/><path d="M16.83 34.852c-.742-2.317.135-5.174 2.543-5.962 1.282-.405 2.857-.067 3.735 1.17.832-1.282 2.475-1.575 3.735-1.17 2.43.787 3.285 3.645 2.565 5.962-1.148 3.668-5.175 5.58-6.3 5.58-1.103-.022-5.085-1.89-6.278-5.58z" fill="#E91C1C" stroke="#000" stroke-width="2" stroke-linecap="round" stroke-linejoin="round"/></svg>