<svg width="20" height="20" fill="none" xmlns="http://www.w3.org/2000/svg"><g clip-path="url(#clip0_2_19)"><path d="M10 0C7.283 0 6.945.013 5.88.058 4.812.111 4.09.276 3.452.524c-.658.257-1.218.6-1.77 1.155A4.848 4.848 0 00.524 3.45C.278 4.088.112 4.81.06 5.878.012 6.942.002 7.281.002 9.998c0 2.719.013 3.058.058 4.121.052 1.065.218 1.791.465 2.428.258.658.6 1.218 1.156 1.771a4.849 4.849 0 001.77 1.156c.638.244 1.364.413 2.429.465 1.064.049 1.402.058 4.12.058 2.719 0 3.057-.013 4.121-.058 1.065-.052 1.79-.221 2.428-.465a4.904 4.904 0 001.77-1.156 4.823 4.823 0 001.157-1.77c.244-.638.413-1.364.465-2.429.048-1.064.058-1.402.058-4.12s-.013-3.057-.058-4.12c-.052-1.066-.222-1.795-.465-2.429a4.904 4.904 0 00-1.156-1.77A4.822 4.822 0 0016.55.523C15.911.276 15.185.11 14.12.058 13.057.01 12.72 0 10.001 0zm0 1.8c2.67 0 2.989.013 4.044.058.973.046 1.503.208 1.855.346.469.182.797.397 1.152.748.348.348.563.68.745 1.15.138.351.3.881.346 1.854.045 1.055.058 1.375.058 4.043 0 2.67-.013 2.989-.062 4.043-.053.974-.215 1.504-.352 1.856-.19.469-.4.797-.75 1.152a3.156 3.156 0 01-1.152.745c-.347.137-.885.3-1.862.346-1.06.045-1.373.058-4.049.058s-2.988-.013-4.05-.062c-.973-.053-1.51-.215-1.862-.352-.475-.19-.8-.4-1.15-.75a3.002 3.002 0 01-.747-1.152c-.14-.347-.3-.885-.352-1.862-.036-1.048-.053-1.373-.053-4.037 0-2.662.017-2.988.053-4.049.052-.977.212-1.513.352-1.862.172-.476.396-.8.748-1.152a2.982 2.982 0 011.15-.75c.351-.137.875-.3 1.852-.348 1.06-.038 1.373-.052 4.045-.052l.042.029zm0 3.067A5.131 5.131 0 004.868 10a5.131 5.131 0 005.134 5.133A5.131 5.131 0 0015.134 10 5.131 5.131 0 0010 4.867zm0 8.466A3.331 3.331 0 016.668 10a3.331 3.331 0 013.334-3.333A3.331 3.331 0 0113.334 10 3.331 3.331 0 0110 13.333zm6.54-8.671a1.202 1.202 0 01-2.402 0 1.202 1.202 0 012.403 0z" fill="#2E2E2E"/></g><defs><clipPath id="clip0_2_19"><path fill="#fff" d="M0 0h20v20H0z"/></clipPath></defs></svg>