<svg width="24" height="24" fill="none" xmlns="http://www.w3.org/2000/svg"><g clip-path="url(#clip0_151_1319)"><path d="M17.071 14.264c-.285-.145-1.677-.824-1.937-.921-.26-.093-.449-.141-.638.145-.186.278-.731.916-.898 1.102-.167.186-.33.2-.612.074-.286-.145-1.199-.442-2.282-1.414-.847-.753-1.41-1.68-1.578-1.966-.166-.282-.018-.442.123-.583.13-.13.286-.326.43-.497.138-.171.182-.286.282-.471.093-.2.045-.356-.025-.498-.07-.14-.639-1.54-.876-2.096-.227-.553-.464-.483-.638-.483-.164-.015-.353-.015-.542-.015-.189 0-.497.07-.757.342-.26.285-.995.968-.995 2.349 0 1.384 1.017 2.723 1.158 2.924.145.185 2 3.035 4.846 4.26.68.286 1.207.457 1.618.598.68.215 1.3.185 1.789.114.541-.089 1.677-.687 1.915-1.354.241-.672.241-1.229.171-1.355-.07-.13-.256-.2-.541-.326l-.013.07zm-5.162 6.998h-.015a9.521 9.521 0 01-4.805-1.31l-.342-.204-3.562.928.957-3.466-.23-.357a9.38 9.38 0 01-1.44-4.994c0-5.173 4.235-9.392 9.444-9.392 2.524 0 4.892.983 6.673 2.764a9.303 9.303 0 012.765 6.643c-.008 5.17-4.238 9.388-9.441 9.388h-.004zm8.034-17.385C17.776 1.783 14.927.6 11.895.6 5.641.6.55 5.67.546 11.9c0 1.989.52 3.93 1.514 5.647L.45 23.4l6.02-1.57a11.493 11.493 0 005.425 1.377h.004c6.256 0 11.348-5.07 11.351-11.304 0-3.017-1.176-5.856-3.32-7.99l.014-.036z" fill="#fff"/></g><defs><clipPath id="clip0_151_1319"><path fill="#fff" transform="translate(.45 .6)" d="M0 0h22.8v22.8H0z"/></clipPath></defs></svg>